<?xml version="1.0"?>
<svg xmlns="http://www.w3.org/2000/svg" xmlns:xlink="http://www.w3.org/1999/xlink" version="1.1" id="Capa_1" x="0px" y="0px" viewBox="0 0 512 512" style="enable-background:new 0 0 512 512;" xml:space="preserve" width="512px" height="512px" class=""><g><g>
	<path style="fill:#343A40" d="M256,0c-4.531,0-8.563,2.865-10.063,7.135s-0.135,9.031,3.396,11.865l53.333,42.667   c4.625,3.708,11.323,2.917,15-1.667c3.677-4.604,2.927-11.313-1.667-15l-26.635-21.302C403.01,39.948,490.667,137.927,490.667,256   c0,105.677-71.323,198.74-173.448,226.302c-5.688,1.542-9.052,7.396-7.521,13.083c1.292,4.76,5.594,7.885,10.292,7.885   c0.927,0,1.865-0.115,2.792-0.365C434.188,472.823,512,371.292,512,256C512,114.844,397.156,0,256,0z" data-original="#303C42" class="active-path" data-old_color="#FCFCFC"/>
	<path style="fill:#343A40" d="M209.333,450.333c-4.604-3.688-11.302-2.917-15,1.667c-3.677,4.604-2.927,11.313,1.667,15   l26.635,21.302C108.99,472.052,21.333,374.073,21.333,256c0-105.677,71.323-198.74,173.448-226.302   c5.688-1.542,9.052-7.396,7.521-13.083c-1.542-5.698-7.448-9.021-13.083-7.521C77.813,39.177,0,140.708,0,256   c0,141.156,114.844,256,256,256c4.531,0,8.563-2.865,10.063-7.135s0.135-9.031-3.396-11.865L209.333,450.333z" data-original="#303C42" class="active-path" data-old_color="#FCFCFC"/>
	<circle style="fill:#343A40" cx="256" cy="181.333" r="74.667" data-original="#303C42" class="active-path" data-old_color="#FCFCFC"/>
</g><circle style="fill:#2D90E7" cx="256" cy="181.333" r="53.333" data-original="#1E88E5" class="" data-old_color="#1E88E5"/><path style="opacity: 0.1;fill:#2D90E7" d="M284.771,136.563c5.363,8.316,8.563,18.16,8.563,28.771  c0,29.406-23.927,53.333-53.333,53.333c-10.611,0-20.454-3.199-28.771-8.563c9.503,14.733,25.975,24.563,44.771,24.563  c29.406,0,53.333-23.927,53.333-53.333C309.333,162.538,299.504,146.065,284.771,136.563z" data-original="#000000" class="" data-old_color="opacity: 0.1#2D90E7"/><path style="fill:#343A40" d="M141.344,307.865c-21.396,11.094-34.677,32.948-34.677,57.042v9.76  c0,16.906,13.677,30.667,30.479,30.667h237.708c16.802,0,30.479-13.76,30.479-30.667v-9.76c0-24.094-13.281-45.948-34.677-57.042  c-26.854-13.927-68.552-30.531-114.656-30.531S168.198,293.938,141.344,307.865z" data-original="#303C42" class="active-path" data-old_color="#FCFCFC"/><path style="fill:#2D90E7" d="M384,364.906v9.76c0,5.146-4.104,9.333-9.146,9.333H137.146c-5.042,0-9.146-4.188-9.146-9.333v-9.76  c0-16.094,8.875-30.698,23.156-38.104c24.76-12.833,63.042-28.135,104.844-28.135s80.083,15.302,104.844,28.135  C375.125,334.208,384,348.813,384,364.906z" data-original="#1E88E5" class="" data-old_color="#1E88E5"/><path style="opacity: 0.1;fill:#2D90E7" d="M360.844,326.802c-24.76-12.833-63.042-28.135-104.844-28.135  c-3.598,0-7.128,0.255-10.667,0.47c37.585,2.288,71.548,15.936,94.177,27.665c14.281,7.406,23.156,22.01,23.156,38.104v9.76  c0,5.146-4.104,9.333-9.146,9.333h21.333c5.042,0,9.146-4.188,9.146-9.333v-9.76C384,348.813,375.125,334.208,360.844,326.802z" data-original="#000000" class="" data-old_color="opacity: 0.1#2D90E7"/><linearGradient id="SVGID_1_" gradientUnits="userSpaceOnUse" x1="-45.5733" y1="639.554" x2="-23.833" y2="629.4148" gradientTransform="matrix(21.3333 0 0 -21.3333 996.3334 13791.667)">
	<stop offset="0" style="stop-color:#FFFFFF;stop-opacity:0.2"/>
	<stop offset="1" style="stop-color:#FFFFFF;stop-opacity:0"/>
</linearGradient></g> </svg>
