<?xml version="1.0"?>
<svg xmlns="http://www.w3.org/2000/svg" xmlns:xlink="http://www.w3.org/1999/xlink" version="1.1" id="Capa_1" x="0px" y="0px" viewBox="0 0 512 512" style="enable-background:new 0 0 512 512;" xml:space="preserve" width="512px" height="512px" class=""><g><path style="fill:#303C42" d="M256,0C114.833,0,0,114.844,0,256s114.833,256,256,256s256-114.844,256-256S397.167,0,256,0z" data-original="#303C42" class="active-path" data-old_color="##343A4"/><path style="fill:#FED600;" d="M256,490.667C126.604,490.667,21.333,385.396,21.333,256S126.604,21.333,256,21.333  S490.667,126.604,490.667,256S385.396,490.667,256,490.667z" data-original="#FED600" class=""/><path style="opacity: 0.1;fill:#010101" d="M407.888,77.445C442.798,118.421,464,171.411,464,229.333  C464,358.729,358.729,464,229.333,464c-57.922,0-110.913-21.202-151.888-56.112c43.077,50.563,107.081,82.779,178.555,82.779  c129.396,0,234.667-105.271,234.667-234.667C490.667,184.526,458.451,120.522,407.888,77.445z" data-original="#010101" class="" data-old_color="opacity: 0.1#010101"/><g>
	<path style="fill:#303C42" d="M213.313,181.333c0-5.896-4.771-10.667-10.667-10.667c-25.708,0-74.667-31.885-74.667-53.333   c0-5.896-4.771-10.667-10.667-10.667c-5.896,0-10.667,4.771-10.667,10.667c0,37.031,61.583,74.667,96,74.667   C208.542,192,213.313,187.229,213.313,181.333z" data-original="#303C42" class="active-path" data-old_color="##343A4"/>
	<path style="fill:#303C42" d="M394.646,106.667c-5.896,0-10.667,4.771-10.667,10.667c0,21.448-48.958,53.333-74.667,53.333   c-5.896,0-10.667,4.771-10.667,10.667c0,5.896,4.771,10.667,10.667,10.667c34.417,0,96-37.635,96-74.667   C405.313,111.438,400.542,106.667,394.646,106.667z" data-original="#303C42" class="active-path" data-old_color="##343A4"/>
	<circle style="fill:#303C42" cx="170.645" cy="213.333" r="21.333" data-original="#303C42" class="active-path" data-old_color="##343A4"/>
	<circle style="fill:#303C42" cx="341.312" cy="213.333" r="21.333" data-original="#303C42" class="active-path" data-old_color="##343A4"/>
	<path style="fill:#303C42" d="M256,320h-0.021c-89.625,0-124.417,45.021-125.854,46.938c-3.5,4.688-2.563,11.302,2.104,14.854   c4.646,3.542,11.333,2.635,14.917-2c1.229-1.573,30.604-38.458,108.813-38.458c0.021,0,0.021,0,0.042,0   c78.229,0.01,107.625,36.896,108.792,38.406c2.104,2.792,5.313,4.26,8.542,4.26c2.229,0,4.479-0.698,6.396-2.135   c4.708-3.531,5.667-10.219,2.146-14.938C380.438,365.021,345.646,320.01,256,320z" data-original="#303C42" class="active-path" data-old_color="##343A4"/>
</g><linearGradient id="SVGID_1_" gradientUnits="userSpaceOnUse" x1="-45.5785" y1="639.5551" x2="-23.8277" y2="629.4137" gradientTransform="matrix(21.3333 0 0 -21.3333 996.3334 13791.667)">
	<stop offset="0" style="stop-color:#FFFFFF;stop-opacity:0.2"/>
	<stop offset="1" style="stop-color:#FFFFFF;stop-opacity:0"/>
</linearGradient></g> </svg>
