<?xml version="1.0" encoding="iso-8859-1"?>
<!-- Generator: Adobe Illustrator 19.0.0, SVG Export Plug-In . SVG Version: 6.00 Build 0)  -->
<svg version="1.1" id="Capa_1" xmlns="http://www.w3.org/2000/svg" xmlns:xlink="http://www.w3.org/1999/xlink" x="0px" y="0px"
	 viewBox="0 0 512 512" style="enable-background:new 0 0 512 512;" xml:space="preserve">
<path style="fill:#303C42;" d="M501.333,362.667h-32V128c0-23.531-19.146-42.667-42.667-42.667H85.333
	c-23.521,0-42.667,19.135-42.667,42.667v234.667h-32C4.771,362.667,0,367.438,0,373.333V384c0,23.531,19.146,42.667,42.667,42.667
	h426.667C492.854,426.667,512,407.531,512,384v-10.667C512,367.438,507.229,362.667,501.333,362.667z"/>
<path style="fill:#BBDEFB;" d="M64,128c0-11.76,9.563-21.333,21.333-21.333h341.333C438.438,106.667,448,116.24,448,128v234.667
	H309.333H202.667H64V128z"/>
<path style="fill:#F2F2F2;" d="M469.333,405.333H42.667c-11.771,0-21.333-9.573-21.333-21.333H198.25l7.542,7.542
	c2,2,4.708,3.125,7.542,3.125h85.333c2.833,0,5.542-1.125,7.542-3.125L313.75,384h176.917
	C490.667,395.76,481.104,405.333,469.333,405.333z"/>
<path style="fill:#303C42;" d="M160,277.333h-42.667c-5.896,0-10.667,4.771-10.667,10.667v42.667
	c0,5.896,4.771,10.667,10.667,10.667H160c5.896,0,10.667-4.771,10.667-10.667V288C170.667,282.104,165.896,277.333,160,277.333z"/>
<rect x="128" y="298.667" style="fill:#1E88E5;" width="21.333" height="21.333"/>
<path style="fill:#303C42;" d="M277.333,256h-42.667c-5.896,0-10.667,4.771-10.667,10.667v64c0,5.896,4.771,10.667,10.667,10.667
	h42.667c5.896,0,10.667-4.771,10.667-10.667v-64C288,260.771,283.229,256,277.333,256z"/>
<rect x="245.333" y="277.333" style="fill:#1E88E5;" width="21.333" height="42.667"/>
<path style="fill:#303C42;" d="M394.667,234.667H352c-5.896,0-10.667,4.771-10.667,10.667v85.333
	c0,5.896,4.771,10.667,10.667,10.667h42.667c5.896,0,10.667-4.771,10.667-10.667v-85.333
	C405.333,239.438,400.563,234.667,394.667,234.667z"/>
<rect x="362.667" y="256" style="fill:#1E88E5;" width="21.333" height="64"/>
<path style="fill:#303C42;" d="M256,213.333c6.536,0,12.609-1.988,17.681-5.365l28.777,24.198c2,1.677,4.438,2.5,6.875,2.5
	c2.792,0,5.563-1.083,7.646-3.229l41.876-43.061c4.368,2.24,9.241,3.624,14.478,3.624c17.646,0,32-14.354,32-32s-14.354-32-32-32
	s-32,14.354-32,32c0,4.609,1.022,8.969,2.784,12.932l-35.513,36.516l-22.19-18.665c0.938-3.005,1.586-6.138,1.586-9.449
	c0-17.646-14.354-32-32-32s-32,14.354-32,32c0,3.78,0.775,7.355,1.983,10.724l-43.941,38.474l-14.121-15.001
	c1.742-3.944,2.746-8.281,2.746-12.863c0-17.646-14.354-32-32-32s-32,14.354-32,32s14.354,32,32,32
	c5.257,0,10.146-1.395,14.526-3.65l20.37,21.629c2.104,2.229,4.938,3.354,7.771,3.354c2.5,0,5-0.875,7.021-2.646l51.111-44.763
	C244.306,211.54,249.928,213.333,256,213.333z"/>
<g>
	<circle style="fill:#1E88E5;" cx="373.333" cy="160" r="10.667"/>
	<circle style="fill:#1E88E5;" cx="138.667" cy="202.667" r="10.667"/>
	<circle style="fill:#1E88E5;" cx="256" cy="181.333" r="10.667"/>
</g>
<linearGradient id="SVGID_1_" gradientUnits="userSpaceOnUse" x1="-45.5637" y1="639.0817" x2="-22.5568" y2="628.3552" gradientTransform="matrix(21.3333 0 0 -21.3333 996.3334 13791.667)">
	<stop  offset="0" style="stop-color:#FFFFFF;stop-opacity:0.2"/>
	<stop  offset="1" style="stop-color:#FFFFFF;stop-opacity:0"/>
</linearGradient>
<path style="fill:url(#SVGID_1_);" d="M501.333,362.667h-32V128c0-23.531-19.146-42.667-42.667-42.667H85.333
	c-23.521,0-42.667,19.135-42.667,42.667v234.667h-32C4.771,362.667,0,367.438,0,373.333V384c0,23.531,19.146,42.667,42.667,42.667
	h426.667C492.854,426.667,512,407.531,512,384v-10.667C512,367.438,507.229,362.667,501.333,362.667z"/>
<g>
</g>
<g>
</g>
<g>
</g>
<g>
</g>
<g>
</g>
<g>
</g>
<g>
</g>
<g>
</g>
<g>
</g>
<g>
</g>
<g>
</g>
<g>
</g>
<g>
</g>
<g>
</g>
<g>
</g>
</svg>
